# xmcd
#
# Track frame offsets:
#	150
#	16559
#	25261
#	46502
#	65656
#	81158
#	92168
#	109676
#	118474
#	138098
#	145774
#	162781
#	188009
#
# Disc length: 2695 seconds
#
# Revision: 0
# Processed by: cddbd v1.5.2PL0 Copyright (c) Steve Scherf et al.
# Submitted via: EasyCDDAExtractor 2011.3.0.0
#
DISCID=9f0a850d
DTITLE=Edgardo Contizanetti - Alma de Blues y Milonga
DYEAR=2008
DGENRE=Blues
TTITLE0=Sol Nievo
TTITLE1=Bordoneando el arroyon
TTITLE2=El chaparral de los hornos
TTITLE3=Melipal
TTITLE4=R.C. Blues
TTITLE5=Lonko milonga
TTITLE6=Chundo
TTITLE7=Milonga del Olivillo
TTITLE8=Double Blues
TTITLE9=Viento y tierra
TTITLE10=El ejemplar
TTITLE11=Solo arcordes
TTITLE12=Tristeando en MI
EXTD=
EXTT0=
EXTT1=
EXTT2=
EXTT3=
EXTT4=
EXTT5=
EXTT6=
EXTT7=
EXTT8=
EXTT9=
EXTT10=
EXTT11=
EXTT12=
PLAYORDER=
